<?xml version="1.0" encoding="utf-8"?>
<!-- Generator: Adobe Illustrator 24.2.0, SVG Export Plug-In . SVG Version: 6.00 Build 0)  -->
<svg version="1.1" id="Layer_1" xmlns="http://www.w3.org/2000/svg" xmlns:xlink="http://www.w3.org/1999/xlink" x="0px" y="0px"
	 viewBox="0 0 141.7 141.7" style="enable-background:new 0 0 141.7 141.7;" xml:space="preserve">
<style type="text/css">
	.st0{fill:#9C9C9C;}
</style>
<path class="st0" d="M121.7,20.2C109.3,7.9,92.9,1.1,75.3,1.1h-1.5c-13.2,0-25.7,4.7-35.5,13.2l4.4-13.2H8.4L0.8,41.6h13.6L8.7,79.7
	c-0.3,1.7,0.2,3.5,1.4,4.8c1.1,1.3,2.8,2.1,4.5,2.1c2.3,0,4.5-1.4,5.5-3.5l2.8-6.1c1.9,5,4.4,9.7,7.7,14l8.1,10.8
	c4.9,6.6,7.7,14.7,7.7,23v15.8h45v-5.4c0-3.4,0.7-6.7,2.1-9.8l3.3,0.8c2.2,0.6,4.6,0.8,6.9,0.8c15.6,0,28.3-12.7,28.3-28.3V88l9-4.5
	V66.4C140.8,48.9,134,32.5,121.7,20.2z M16,81.2c-0.2,0.5-0.8,0.9-1.4,0.9c-0.6,0-1-0.3-1.1-0.5c-0.2-0.2-0.4-0.6-0.3-1.2l6.5-43.3
	H6.3l5.9-31.5h24.3l-9,27h10.9L16,81.2z M136.3,80.7l-9,4.5v13.6c0,13.1-10.7,23.8-23.8,23.8c-1.9,0-3.9-0.2-5.8-0.7l-23.9-6
	l-1.1,4.4l16.2,4.1c-1.4,3.5-2.2,7.2-2.2,10.9v0.9H64.3v-22.5c0-3.7,3-6.8,6.8-6.8h18c6.2,0,11.3-5,11.3-11.3
	c0-6.2-5-11.3-11.3-11.3H55.3c-2.5,0-4.5-2-4.5-4.5c0-2.5,2-4.5,4.5-4.5h29.3c3.7,0,6.8-3,6.8-6.8c0-0.8-0.2-1.5-0.4-2.3h20.7
	c6.2,0,11.3-5,11.3-11.3s-5-11.3-11.3-11.3c-0.1,0-0.1,0-0.2,0c0.1-0.8,0.2-1.5,0.2-2.3c0-9.9-8.1-18-18-18c-2.5,0-4.9,0.5-7.1,1.4
	C83,18.6,76.3,14.6,68.8,14.6c-11.2,0-20.3,9.1-20.3,20.3c0,1.6,0.2,3.1,0.6,4.6c-6.6,0.8-11.8,6.5-11.8,13.4
	c0,7.4,6.1,13.5,13.5,13.5h33.8c1.2,0,2.3,1,2.3,2.3c0,1.2-1,2.3-2.3,2.3H55.3c-5,0-9,4-9,9c0,5,4,9,9,9h33.8c3.7,0,6.8,3,6.8,6.8
	s-3,6.8-6.8,6.8h-18c-6.2,0-11.3,5-11.3,11.3v22.5h-9v-11.3c0-9.2-3-18.3-8.6-25.7l-8.1-10.8c-3.9-5.2-6.8-11.1-8.5-17.4l19.7-42.9
	H33.7L35,24C44.6,12.3,58.7,5.6,73.8,5.6h1.5c16.3,0,31.7,6.3,43.2,17.8c11.5,11.5,17.8,26.7,17.8,43V80.7z M50.8,43.8c5,0,9,4,9,9
	h4.5c0-6.4-4.5-11.8-10.5-13.2c-0.5-1.6-0.8-3.2-0.8-4.9c0-8.7,7.1-15.8,15.8-15.8c5.8,0,11.1,3.2,13.8,8.2
	c-3.8,2.9-6.4,7.3-6.9,12.3c-3.9,1-6.9,4.5-6.9,8.7h4.5c0-2.5,2-4.5,4.5-4.5s4.5,2,4.5,4.5h4.5c0-4.1-2.8-7.6-6.6-8.6
	c0.9-6.6,6.6-11.6,13.4-11.6c7.4,0,13.5,6.1,13.5,13.5c0,1.2-0.2,2.3-0.5,3.5c-3.7,1.8-6.3,5.6-6.3,10h4.5c0-3.7,3-6.8,6.8-6.8
	c3.7,0,6.8,3,6.8,6.8s-3,6.8-6.8,6.8H50.8c-5,0-9-4-9-9S45.9,43.8,50.8,43.8z"/>
</svg>
