<?xml version="1.0" encoding="utf-8"?>
<!-- Generator: Adobe Illustrator 25.3.1, SVG Export Plug-In . SVG Version: 6.00 Build 0)  -->
<svg version="1.1"
	 id="Layer_1" xmlns:cc="http://creativecommons.org/ns#" xmlns:dc="http://purl.org/dc/elements/1.1/" xmlns:inkscape="http://www.inkscape.org/namespaces/inkscape" xmlns:rdf="http://www.w3.org/1999/02/22-rdf-syntax-ns#" xmlns:sodipodi="http://sodipodi.sourceforge.net/DTD/sodipodi-0.dtd" xmlns:svg="http://www.w3.org/2000/svg"
	 xmlns="http://www.w3.org/2000/svg" xmlns:xlink="http://www.w3.org/1999/xlink" x="0px" y="0px" viewBox="0 0 141.7 141.7"
	 style="enable-background:new 0 0 141.7 141.7;" xml:space="preserve">
<style type="text/css">
	.st0{fill:#9C9C9C;}
</style>
<desc>Created with Sketch.</desc>
<g>
	<path class="st0" d="M58.9,59.6h-1c-0.9,0-1.5-0.7-1.5-1.5s0.7-1.5,1.5-1.5h1c4.3,0,7.9-3.5,7.9-7.9v-5.5c0-4.1,3.4-7.5,7.5-7.5
		h2.6c0.9,0,1.5,0.7,1.5,1.5c0,0.9-0.7,1.5-1.5,1.5h-2.6c-2.4,0-4.4,2-4.4,4.4v5.5C69.9,54.7,65,59.6,58.9,59.6z"/>
	<path class="st0" d="M76.9,98.2h-2.7c-3.7,0-6.7-3-6.7-6.7V71.1c0-2-1.6-3.6-3.6-3.6c-0.9,0-1.5-0.7-1.5-1.5s0.7-1.5,1.5-1.5
		c3.7,0,6.7,3,6.7,6.7v20.4c0,2,1.6,3.6,3.6,3.6h2.7c0.9,0,1.5,0.7,1.5,1.5S77.8,98.2,76.9,98.2z"/>
	<path class="st0" d="M126.5,33.8H81.6c-0.9,0-1.5,0.7-1.5,1.5v23.9c0,0.9,0.7,1.5,1.5,1.5h44.9c0.9,0,1.5-0.7,1.5-1.5V35.4
		C128.1,34.5,127.4,33.8,126.5,33.8z M125,57.8H83.1V36.9H125V57.8z"/>
	<path class="st0" d="M114.4,77.9c-2.4,0-4.4,2-4.4,4.4s2,4.4,4.4,4.4s4.4-2,4.4-4.4C118.8,79.9,116.8,77.9,114.4,77.9z M114.4,83.7
		c-0.7,0-1.3-0.6-1.3-1.3c0-0.7,0.6-1.3,1.3-1.3c0.7,0,1.3,0.6,1.3,1.3C115.7,83.1,115.1,83.7,114.4,83.7z"/>
	<path class="st0" d="M114.4,90.1c-2.4,0-4.4,2-4.4,4.4c0,2.4,2,4.4,4.4,4.4s4.4-2,4.4-4.4C118.8,92.1,116.8,90.1,114.4,90.1z
		 M114.4,95.9c-0.7,0-1.3-0.6-1.3-1.3s0.6-1.3,1.3-1.3c0.7,0,1.3,0.6,1.3,1.3S115.1,95.9,114.4,95.9z"/>
	<path class="st0" d="M88.1,43.5h14.8c0.9,0,1.5-0.7,1.5-1.5c0-0.9-0.7-1.5-1.5-1.5H88.1c-0.9,0-1.5,0.7-1.5,1.5
		C86.5,42.8,87.2,43.5,88.1,43.5z"/>
	<path class="st0" d="M88.1,48.9h14.8c0.9,0,1.5-0.7,1.5-1.5s-0.7-1.5-1.5-1.5H88.1c-0.9,0-1.5,0.7-1.5,1.5S87.2,48.9,88.1,48.9z"/>
	<path class="st0" d="M88.1,54.3h14.8c0.9,0,1.5-0.7,1.5-1.5s-0.7-1.5-1.5-1.5H88.1c-0.9,0-1.5,0.7-1.5,1.5S87.2,54.3,88.1,54.3z"/>
	<path class="st0" d="M110.4,51.9h9.6c0.9,0,1.5-0.7,1.5-1.5v-9.2c0-0.9-0.7-1.5-1.5-1.5h-9.6c-0.9,0-1.5,0.7-1.5,1.5v9.2
		C108.9,51.2,109.6,51.9,110.4,51.9z M112,42.7h6.5v6.1H112V42.7z"/>
	<path class="st0" d="M88.2,77.9h-3v-3c0-0.9-0.7-1.5-1.5-1.5s-1.5,0.7-1.5,1.5v4.5c0,0.9,0.7,1.5,1.5,1.5h4.5
		c0.9,0,1.5-0.7,1.5-1.5S89,77.9,88.2,77.9z"/>
	<path class="st0" d="M98.5,77.9h-3v-3c0-0.9-0.7-1.5-1.5-1.5s-1.5,0.7-1.5,1.5v4.5c0,0.9,0.7,1.5,1.5,1.5h4.5
		c0.9,0,1.5-0.7,1.5-1.5S99.4,77.9,98.5,77.9z"/>
	<path class="st0" d="M88.2,87.2h-3v-3c0-0.9-0.7-1.5-1.5-1.5s-1.5,0.7-1.5,1.5v4.5c0,0.9,0.7,1.5,1.5,1.5h4.5
		c0.9,0,1.5-0.7,1.5-1.5S89,87.2,88.2,87.2z"/>
	<path class="st0" d="M98.5,87.2h-3v-3c0-0.9-0.7-1.5-1.5-1.5s-1.5,0.7-1.5,1.5v4.5c0,0.9,0.7,1.5,1.5,1.5h4.5
		c0.9,0,1.5-0.7,1.5-1.5S99.4,87.2,98.5,87.2z"/>
	<path class="st0" d="M88.2,96.6h-3v-3c0-0.9-0.7-1.5-1.5-1.5s-1.5,0.7-1.5,1.5v4.5c0,0.9,0.7,1.5,1.5,1.5h4.5
		c0.9,0,1.5-0.7,1.5-1.5S89,96.6,88.2,96.6z"/>
	<path class="st0" d="M98.5,96.6h-3v-3c0-0.9-0.7-1.5-1.5-1.5s-1.5,0.7-1.5,1.5v4.5c0,0.9,0.7,1.5,1.5,1.5h4.5
		c0.9,0,1.5-0.7,1.5-1.5S99.4,96.6,98.5,96.6z"/>
	<path class="st0" d="M125.4,64.4c-0.9,0-1.5,0.7-1.5,1.5c0,0.4-0.4,0.8-0.8,0.8c-0.9,0-1.5,0.7-1.5,1.5s0.7,1.5,1.5,1.5
		c2.2,0,3.9-1.7,3.9-3.9C127,65.1,126.3,64.4,125.4,64.4z"/>
	<path class="st0" d="M113.8,64.4c-0.9,0-1.5,0.7-1.5,1.5c0,0.4-0.4,0.8-0.8,0.8c-0.9,0-1.5,0.7-1.5,1.5s0.7,1.5,1.5,1.5
		c2.2,0,3.9-1.7,3.9-3.9C115.4,65.1,114.7,64.4,113.8,64.4z"/>
	<path class="st0" d="M102.2,64.4c-0.9,0-1.5,0.7-1.5,1.5c0,0.4-0.4,0.8-0.8,0.8c-0.9,0-1.5,0.7-1.5,1.5s0.7,1.5,1.5,1.5
		c2.2,0,3.9-1.7,3.9-3.9C103.7,65.1,103.1,64.4,102.2,64.4z"/>
	<path class="st0" d="M90.7,63.6h-9.1c-0.9,0-1.5,0.7-1.5,1.5s0.7,1.5,1.5,1.5h9.1c0.9,0,1.5-0.7,1.5-1.5S91.6,63.6,90.7,63.6z"/>
	<path class="st0" d="M68.9,120.9c0-0.9-0.7-1.5-1.5-1.5h-55c-0.9,0-1.5,0.7-1.5,1.5s0.7,1.5,1.5,1.5h55
		C68.2,122.5,68.9,121.8,68.9,120.9z"/>
	<path class="st0" d="M37.2,114.7c-0.9,0-1.5,0.7-1.5,1.5s0.7,1.5,1.5,1.5H44c0.9,0,1.5-0.7,1.5-1.5s-0.7-1.5-1.5-1.5H37.2z"/>
	<path class="st0" d="M15.2,72.1l0.1,2.7c-0.8,0.9-1.2,2.1-1.2,3.3v6.3c0,0.8,0.6,1.4,1.3,1.5l3.6,0.5c0.2,10.1,5.1,19.7,5.4,20.3
		c0.1,0.2,0.2,0.3,0.4,0.5c-2.1,2.4-3.7,5.9-1.4,8.9c0.8,1,1.9,1.6,3.1,1.6c0,0,0.1,0,0.1,0c3.1,0,6.7-3.3,9.1-6.1
		c0.9-1,1.1-2.4,0.7-3.7l-0.9-2.4c0.2-0.2,0.5-0.3,0.7-0.5c0.5-0.4,0.7-1.1,0.6-1.7c-0.9-2.9-2.4-9.4-2.3-14.8l3.7,0.5
		c0.1,0,0.1,0,0.2,0h0.7v12.2c0,0.9,0.7,1.5,1.5,1.5c0.9,0,1.5-0.7,1.5-1.5V89.1h0.7c0.1,0,0.1,0,0.2,0l4-0.5
		c0.1,5.5-1.9,12-2.9,14.8c-0.3,0.7,0,1.5,0.7,1.9l-1.2,2.9c0,0,0,0,0,0.1c-0.5,1.3-0.2,2.7,0.7,3.7c2.5,2.8,6,6.1,9.1,6.1
		c0,0,0.1,0,0.1,0c1.3,0,2.3-0.6,3.1-1.6c2.2-2.9,0.8-6.6-1.2-9.3c0.2,0,0.3-0.1,0.5-0.1c0.5-0.1,0.9-0.4,1.1-0.9
		c0.1-0.2,2.3-5.5,4.6-15.6c0.3-1.4,0.5-2.8,0.6-4.1l3-0.4c0.8-0.1,1.3-0.8,1.3-1.5v-5.7c0-0.3-0.1-0.6-0.3-0.9l-3.5-4.8l2.4,1.9
		c1.1,0.8,2.4,1.3,3.7,1.3c1.8,0,3.4-0.8,4.6-2.1c2.1-2.5,1.9-6.2-0.5-8.4l-4.8-4.4c-1.3-1.2-2.5-2.7-3.4-4.3l-2.5-4.2V42.3
		c0-3.9-1.2-7.5-3.6-10.6c-1.6-2.1-4.2-3.4-7-3.4c0,0-0.1,0-0.1,0l-1,0c-1.6-5.3-6.5-9.1-12.3-9.1c-5.9,0-10.8,3.9-12.4,9.3l-1.3,0
		c-2.9,0-5.6,1.5-7.2,3.8c-2,2.9-3.1,6.3-3.1,9.9c0,0,0,0,0,0l0.3,10.1L11.9,57c-0.9,1.6-2.1,3-3.4,4.3l-4.8,4.4
		c-1.2,1.1-1.9,2.8-1.9,4.5c0,1.4,0.5,2.9,1.5,4c1.2,1.4,2.9,2.1,4.6,2.1c1.3,0,2.6-0.4,3.7-1.3L15.2,72.1z M17.1,78.1
		c0-0.6,0.3-1.1,0.7-1.5c0.4-0.3,0.6-0.8,0.6-1.2l-0.1-5.9c1.7-1.6,3.1-3.4,4.4-5.3l1-1.6l0.1,8.9c-3,3.5-4.4,7.7-4.8,11.9l-1.9-0.3
		L17.1,78.1L17.1,78.1z M33.5,109.1c0.1,0.2,0,0.4-0.1,0.6c-2.7,3.1-5.4,5.1-6.8,5.1c0,0,0,0,0,0c-0.2,0-0.5-0.1-0.8-0.4
		c-1.8-2.3,1.9-5.7,2.7-6.4c1.5,0,2.9-0.3,4.3-0.8L33.5,109.1z M42.8,86h-2.2c0,0,0,0,0,0s0,0,0,0h-2.2l-3.8-0.5
		c0.2-1.6,0.7-3,1.5-4c1-1.4,2.6-2,4.7-1.7c2.3,0.2,3.8,1.1,4.9,2.8c0.5,0.8,0.9,1.8,1.1,2.9L42.8,86z M54.2,114.4
		c-0.3,0.4-0.5,0.4-0.8,0.4c0,0,0,0,0,0c-1.4,0-4.1-2-6.8-5.1c-0.1-0.2-0.2-0.4-0.1-0.5l1.1-2.8c1.3,0.4,2.6,0.7,4,0.8
		C52.7,108.4,55.9,112.2,54.2,114.4z M58.7,89.8c-1.7,7.6-3.4,12.5-4.1,14.3c-2.6,0.4-4.9,0-7.1-0.9c1-2.9,3.1-10.2,2.6-16.4
		c0-0.1,0-0.1,0-0.2c0,0,0,0,0-0.1c-0.2-2.1-0.7-4-1.7-5.6c-1.5-2.5-4-3.9-7.2-4.2c-3.3-0.3-5.8,0.7-7.5,3
		c-4.5,6.1-1.3,19.4-0.2,23.6c-2.1,1.3-4.3,1.8-6.7,1.5c-1.7-3.6-9.3-21.1-0.6-31.2c2.3-2.6,5.5-4.5,9.1-5.2c2.5-0.5,4.8-0.8,7-0.8
		c3.1,0,5.8,0.6,7.8,1.6C50.2,69.2,61.8,75.9,58.7,89.8z M63.6,83.1l-1.3,0.2c-0.4-4.8-2.3-8.5-4.2-11c-1.7-2.3-3.6-3.9-4.9-4.8
		v-4.8l1,1.5c1.4,2.2,3.1,4.2,5.1,5.9v2.7c0,0.3,0.1,0.6,0.3,0.9l4,5.5L63.6,83.1L63.6,83.1z M51.7,31.4
		C51.7,31.4,51.8,31.4,51.7,31.4c1.8,0,3.5,0.8,4.6,2.2c1.9,2.5,2.9,5.5,2.9,8.7v5.3l-0.4-0.7c-2.2-3.7-5.7-6.4-9.7-7.7
		c1.3-2,2.1-4.5,2.1-7.1c0-0.2,0-0.5,0-0.7L51.7,31.4z M38.4,22.3c4.7,0,8.7,3.4,9.6,7.9c0,0,0,0,0,0c0.1,0.6,0.2,1.3,0.2,1.9
		c0,5.4-4.4,9.8-9.8,9.8c-5.4,0-9.8-4.4-9.8-9.8S33,22.3,38.4,22.3z M17.5,42.3c0-2.9,0.9-5.7,2.5-8.1c1.1-1.5,2.8-2.5,4.7-2.5
		l0.8,0c0,0.1,0,0.3,0,0.4c0,2.6,0.8,5,2.1,7c-3.9,1.2-7.2,3.7-9.3,7.3l-0.6,1L17.5,42.3z M5.6,72.1c-0.5-0.5-0.7-1.2-0.7-1.9
		c0-0.8,0.3-1.6,1-2.2l4.8-4.4c1.6-1.5,2.9-3.1,4-5L20.9,48c1.9-3.3,5.2-5.5,8.9-6.2c2.3,2,5.3,3.3,8.5,3.3c3.3,0,6.2-1.2,8.5-3.2
		c3.9,0.9,7.2,3.3,9.3,6.7l6,10.1c1.1,1.8,2.4,3.5,4,5L71,68c1.2,1.1,1.3,2.9,0.2,4.1c-0.6,0.7-1.4,1-2.2,1c-0.7,0-1.3-0.2-1.8-0.6
		L62.7,69c-2.3-1.8-4.3-4-5.9-6.5l-3.8-5.9c-0.4-0.6-1.1-0.8-1.7-0.6c-0.7,0.2-1.1,0.8-1.1,1.5v8.2c-2.2-0.9-4.8-1.3-7.8-1.3
		c-2.4,0-4.9,0.3-7.6,0.8c-2.9,0.6-5.5,1.8-7.8,3.4l-0.2-11.2c0-0.7-0.5-1.3-1.1-1.5c-0.7-0.2-1.4,0.1-1.7,0.6L20,62.5
		c-1.6,2.5-3.6,4.7-5.9,6.5l-4.5,3.5C8.4,73.5,6.6,73.3,5.6,72.1z"/>
	<path class="st0" d="M122.5,24.8H85.6c-5.7,0-10.3,4.6-10.3,10.3v68.8c0,0.9,0.7,1.5,1.5,1.5h5.4v4.4h-5.3c-0.9,0-1.5,0.7-1.5,1.5
		v9.6c0,0.9,0.7,1.5,1.5,1.5h53.9c0.9,0,1.5-0.7,1.5-1.5v-9.6c0-0.9-0.7-1.5-1.5-1.5h-5.4v-4.4h5.7c0.9,0,1.5-0.7,1.5-1.5v-18h2
		c2.8,0,5.2-2.3,5.2-5.2V51.3c0-2.8-2.3-5.2-5.2-5.2h-2v-11C132.8,29.4,128.2,24.8,122.5,24.8z M129.3,119.4H78.5v-6.5h50.8
		L129.3,119.4L129.3,119.4z M85.4,109.8v-4.4h37.1v4.4H85.4z M121.2,102.3h-13.6V79.9c0-3,3.1-5.5,6.8-5.5c3.8,0,6.8,2.5,6.8,5.5
		V102.3z M129.7,102.3h-5.4V79.9c0-4.7-4.4-8.6-9.9-8.6c-5.5,0-9.9,3.8-9.9,8.6v22.4h-26V35.1c0-3.9,3.2-7.2,7.2-7.2h36.9
		c3.9,0,7.2,3.2,7.2,7.2C129.7,35.1,129.7,102.3,129.7,102.3z M134.8,49.2c1.1,0,2.1,0.9,2.1,2.1v29.4c0,1.1-0.9,2.1-2.1,2.1h-2
		V49.2H134.8z"/>
</g>
</svg>
