<svg version="1.1" id="Capa_1" xmlns="http://www.w3.org/2000/svg" x="0" y="0" viewBox="0 0 160 160" style="enable-background:new 0 0 160 160" xml:space="preserve"><style>.st1{fill:#40919b}</style><g id="Capa_2_00000004528356628734364160000012776524786317082757_"><g id="contenido"><path d="M47.2 12.8h65.6c9.8 0 17.7 7.9 17.7 17.7v99c0 9.8-7.9 17.7-17.7 17.7H47.2c-9.8 0-17.7-7.9-17.7-17.7v-99c0-9.8 7.9-17.7 17.7-17.7z" style="fill:#fff"/><path class="st1" d="M104.9 109.6H55.1c-1.4 0-2.5-1.1-2.5-2.5V57.3c0-1.4 1.1-2.5 2.5-2.5h49.8c1.4 0 2.5 1.1 2.5 2.5v49.8c0 1.4-1.1 2.5-2.5 2.5zm-47.3-5h44.7V59.8H57.6v44.8z"/><path class="st1" d="m66.7 79.8 1.8-1.2c.4.9 1.2 1.5 2.2 1.5 1.3 0 2-.7 2-2.8v-9.6h2.5v9.8c0 2.6-1.3 4.7-4.2 4.7-1.8.1-3.4-.8-4.3-2.4zM76.6 67.7h2.6l1.2 7.2.7 4.5h.2l.9-4.5 1.7-7.2h2.2l1.7 7.2.9 4.5h.1c.2-1.5.5-3.1.7-4.5l1.2-7.2h2.4l-2.6 14.2h-3.1l-1.8-7.5c-.2-1.1-.5-2.2-.6-3.3h-.1l-.6 3.3-1.7 7.5h-3.1l-2.9-14.2zM68 83.8h3.3c2.2 0 3.8.7 3.8 2.6 0 1-.5 1.9-1.5 2.3 1.2.2 2.1 1.3 2 2.5 0 2.1-1.7 3.1-4.1 3.1H68V83.8zm3.2 4.5c1.5 0 2.1-.6 2.1-1.5s-.8-1.5-2.2-1.5h-1.4v2.9l1.5.1zm.3 4.8c1.6 0 2.4-.6 2.4-1.8 0-1.2-.9-1.7-2.4-1.7h-1.7v3.3l1.7.2zM76.6 89.2c0-3.5 1.9-5.5 4.7-5.5 2.8 0 4.7 2.1 4.7 5.5 0 3.5-1.9 5.6-4.7 5.6s-4.7-2.2-4.7-5.6zm7.5 0c0-2.4-1.1-3.9-2.8-3.9s-2.8 1.5-2.8 3.9 1.1 4 2.8 4 2.8-1.6 2.8-4z"/><path class="st1" d="m89.1 89-2.9-5.2h2.1l1.2 2.4.8 1.7c.3-.7.5-1.1.7-1.7l1.1-2.4h2l-2.8 5.3 3 5.4h-2L91 91.9l-.9-1.7c-.3.7-.5 1.2-.8 1.7l-1.4 2.6h-2l3.2-5.5z"/><path class="st1" d="M111.7 5H48.3c-15 0-27.1 12.2-27.2 27.2v21.3c2.1 0 3.8 1.7 3.8 3.8 0 2.1-1.7 3.8-3.8 3.8v15.1c2.1 0 3.8 1.7 3.8 3.8 0 2.1-1.6 3.8-3.7 3.9h-.1V99c2.1 0 3.8 1.7 3.8 3.8 0 2.1-1.7 3.8-3.8 3.8v21.3c0 15 12.2 27.1 27.2 27.1h63.4c15 0 27.1-12.2 27.2-27.1V32.2c-.1-15-12.2-27.2-27.2-27.2zm17.1 122.9c0 9.4-7.7 17.1-17.1 17.1H48.3c-9.5 0-17.1-7.7-17.1-17.1V32.2c0-9.5 7.7-17.1 17.1-17.1h63.4c9.5 0 17.1 7.7 17.1 17.1v95.7z"/></g></g></svg>